<?xml version="1.0" encoding="utf-8"?>
<!-- Generator: Adobe Illustrator 19.1.0, SVG Export Plug-In . SVG Version: 6.00 Build 0)  -->
<svg version="1.1" id="Layer_1" xmlns="http://www.w3.org/2000/svg" xmlns:xlink="http://www.w3.org/1999/xlink" x="0px" y="0px"
	 viewBox="-225 269.6 340.3 75.4" style="enable-background:new -225 269.6 340.3 75.4;" xml:space="preserve">
<style type="text/css">
	.st0{enable-background:new    ;}
	.st1{fill:#D9534F;}
	.st2{fill:#346A9A;}
</style>
<g class="st0">
	<path class="st1" d="M-174.9,277.7c-5.6,0-17.1,7.6-27.1,23.7c-9.9,16.1-10.2,29.4,2,29.4c13.5,0,27.7-14.5,33.1-22
		c1.9-2.7,4.5,3.5,3.1,5.8c-7.1,11.1-24.3,27.8-40.8,27.8c-16.5,0-28.7-17.9-9.5-44.9c14.8-20.7,32-26.1,40.2-26.1
		c14,0,9.6,20.4-2.7,27.5c-5.8,3.3-8.2-2.4-8.2-2.4C-175.3,289.8-169.3,277.7-174.9,277.7z"/>
	<path class="st1" d="M-113.4,303.2c-0.6,0.7-16.1,19.6-27.2,17.8c-0.7,1.3-1.5,2.6-2.4,4c-7.8,11.7-16.3,17.4-24.3,17.4
		c-9.8,0-14.9-11.1-5.4-27.1c9.5-16,19.4-20.7,25.9-20.7c1.3,0,1.7,1.5,1.9,3.2c1.7-1.8,3.6-2.9,5.5-2.9c4,0,4.9,6,4.1,11
		c-0.3,2-0.7,4.5-1.7,7.3c6.7,1.2,18.6-11.2,20.2-13.3C-115,297.4-112.7,302.4-113.4,303.2z M-147.6,315.8
		c-2.4-3.7-2.3-8.3-0.9-12.1c-3.7,2.2-8.4,7.1-11.9,13c-4.6,7.8-5.4,14.1-1.7,14.1C-157.2,330.9-151.4,322.8-147.6,315.8z"/>
	<path class="st1" d="M-90.1,303.2c-2,2.1-25.8,26-31.5,31.5c-6.3,5.9-10.2,7.6-13.2,7.6c-4.8,0-6.9-3.5-2.8-10.9
		c3-5.4,32-60.1,32-60.1h11.4c0,0-22.6,42.3-25.7,48.2c-1.1,1.9-3,5.9-2.4,6.5c0.6,0.6,2.3-0.9,4.2-2.5c2.7-2.3,24.6-23,27.2-25.9
		C-89.5,296.1-89.4,302.4-90.1,303.2z"/>
	<path class="st1" d="M-48.1,303.2c-0.6,0.7-16.1,19.6-27.2,17.8c-0.7,1.3-1.5,2.6-2.4,4c-7.8,11.7-16.3,17.4-24.3,17.4
		c-9.8,0-14.9-11.1-5.4-27.1c9.5-16,19.4-20.7,25.9-20.7c1.3,0,1.7,1.5,1.9,3.2c1.7-1.8,3.6-2.9,5.5-2.9c4,0,4.9,6,4.1,11
		c-0.3,2-0.7,4.5-1.7,7.3c6.7,1.2,18.6-11.2,20.2-13.3C-49.7,297.4-47.4,302.4-48.1,303.2z M-82.3,315.8c-2.4-3.7-2.3-8.3-0.9-12.1
		c-3.7,2.2-8.4,7.1-11.9,13c-4.6,7.8-5.4,14.1-1.7,14.1C-91.9,330.9-86.1,322.8-82.3,315.8z"/>
	<path class="st1" d="M-13.3,303.2c-2,2.1-25.7,26-31.5,31.5c-6.2,5.9-10.2,7.6-13.2,7.6c-4.8,0-6.8-3.5-2.8-10.9
		c3-5.4,6.9-13.2,10.4-19.2c3.7-6.1-0.7-6.6-2.4-7.5c-3.9-2-9.5-8.4-4.2-15c4.2-5.2,10.4-4.2,14-1.9c3.8,2.4,0.4,7.3-4,12
		c0.4,0.5,0.9,0.9,1.6,1.3c5.5,3.2,12.7-0.5,7.8,8.7c-1.8,3.5-2.3,3.8-5.4,9.6c-1.1,1.9-3,5.9-2.4,6.5c0.6,0.6,2.3-0.9,4.1-2.5
		c2.8-2.3,24.6-23,27.2-25.9C-12.6,296.1-12.6,302.4-13.3,303.2z"/>
</g>
<g class="st0">
	<path class="st2" d="M6.2,322.4c-3.2,4.9-10.3,10.2-15,12.4c-2.4,6.3-6.1,7.5-9.8,7.5c-2.2,0-5.4-0.7-4.8-3.9
		c0.4-2.5,4.7-3.3,9.3-4.5c0.4-1.1,0.6-2.4,1-4.1c1-5.7,1.4-12.7,7.7-13.1s-0.3,5.2-0.3,5.2s-0.9,4.5-1.4,7.2
		c-0.1,0.9-0.4,1.8-0.6,2.6c3.8-1.7,8.5-4.9,13.7-11.8C6.7,319.2,6.5,321.9,6.2,322.4z M-17,339c0.4-0.6,0.9-1.1,1.4-1.8
		c-2.1,0.6-3.7,1.2-3.8,2C-19.7,340.5-17.9,340.3-17,339z"/>
	<path class="st2" d="M26,322.6c-5.3,8.6-14.4,19.7-23.3,19.7c-8.8,0-10.6-6.8-5.7-14.7c4-6.4,9-9.2,12.1-9.2c5.2,0,8.5,5,3.3,11.4
		c-3.1,3.9-6.7,5.5-9.8,4.6c-0.8-0.2-1.4-0.6-1.9-1.1c-0.6,2.9,0.6,4.7,3.7,4.7c6.2,0,13.9-8.4,20.8-18.1
		C26,319.2,26.3,322.2,26,322.6z M2.4,329.6c-0.1,0.2-0.2,0.3-0.3,0.5c1.8,1.4,3.8,0,5.5-1.4c2.3-1.9,4.2-6.2,2.4-6.2
		C8.1,322.5,4.7,325.6,2.4,329.6z"/>
	<path class="st2" d="M49.5,322.8c-1,1-12.9,13-15.8,15.7c-3.1,3-5.1,3.8-6.6,3.8c-2,0-3.1-1.2-2.1-3.9c-2.1,2.1-4.7,3.9-7.2,3.9
		c-4.9,0-6.4-5.8-1.3-13.5s9.7-10.4,12.9-10.4c2.1,0,3.6,1.9,4,4c1.3-2.3,2.1-4,2.1-4l5.7,0c0,0-5.1,9.6-6.7,12.5
		c-0.5,1-1.5,3-1.2,3.2c0.3,0.3,1.2-0.5,2.1-1.3c1.4-1.2,12.3-11.5,13.6-12.9C49.9,319.2,49.9,322.4,49.5,322.8z M29.5,329.6
		c2.3-3.9,2.7-7.1,0.9-7.1c-1.9,0-5.3,3.2-7.6,7.1c-2.3,3.9-2.7,7.1-0.8,7.1C23.8,336.6,27.2,333.5,29.5,329.6z"/>
	<path class="st2" d="M66.6,322.8c-1,1-12.9,13-15.8,15.7c-3.1,3-5.1,3.8-6.6,3.8c-2.4,0-3.4-1.7-1.4-5.5c1.5-2.7,3.5-6.6,5.2-9.6
		c1.8-3.1-0.4-3.3-1.2-3.7c-1.9-1-4.8-4.2-2.1-7.5c2.1-2.6,5.2-2.1,7-0.9c1.9,1.2,0.2,3.6-2,6c0.2,0.3,0.5,0.5,0.8,0.6
		c2.8,1.6,6.3-0.3,3.9,4.4c-0.9,1.7-1.2,1.9-2.7,4.8c-0.5,1-1.5,3-1.2,3.2c0.3,0.3,1.2-0.5,2.1-1.3c1.4-1.2,12.3-11.5,13.6-12.9
		C66.9,319.2,66.9,322.4,66.6,322.8z"/>
	<path class="st2" d="M86.6,322.6c-5.3,8.6-14.4,19.7-23.2,19.7c-8.1,0-10.7-6.8-5.7-14.7c4-6.4,9-9.2,12.2-9.2
		c5.2,0,8.2,4.8,3.3,11.4c-1.8,2.4-4.9-1.2-4.9-1.2c2.3-1.9,4.3-6.2,2.4-6.2c-1.9,0-5.3,3.1-7.6,7.1c-3,5-2.1,8.5,2.1,8.5
		c6.2,0,13.9-8.4,20.8-18.1C86.6,319.2,86.9,322.2,86.6,322.6z"/>
	<path class="st2" d="M112.6,322.8c-1,1-12.9,13-15.8,15.7c-3.1,3-5.1,3.8-6.6,3.8c-2.4,0-3.4-1.7-1.4-5.5c1.5-2.7,2.6-4.8,4.2-7.8
		c1.5-2.8,1.9-4.4,0.7-4.4c-2.1,0-11.7,9-16.3,17.6h-5.7l19-35.5h5.7l-12.1,22.6c7.2-9.4,12.4-11,14.1-11c2.8,0,5,1.8,2.5,6.4
		c-0.9,1.7-1.7,3.2-3.3,6.1c-0.5,1-1.5,3-1.2,3.2c0.3,0.3,1.2-0.5,2.1-1.3c1.4-1.2,12.3-11.5,13.6-12.9
		C112.9,319.2,112.9,322.4,112.6,322.8z"/>
</g>
</svg>
