<?xml version="1.0" encoding="utf-8"?>
<!-- Generator: Adobe Illustrator 19.1.0, SVG Export Plug-In . SVG Version: 6.00 Build 0)  -->
<svg version="1.1" xmlns="http://www.w3.org/2000/svg" xmlns:xlink="http://www.w3.org/1999/xlink" x="0px" y="0px"
	 viewBox="-269 260.6 252.7 93" style="enable-background:new -269 260.6 252.7 93;" xml:space="preserve">
<style type="text/css">
	.st0{enable-background:new    ;}
	.st1{fill:#D9534F;}
	.st2{fill:#346A9A;}
</style>
<g id="Layer_1">
</g>
<g id="Layer_2">
	<g class="st0">
		<path class="st1" d="M-218.9,287.6c-5.6,0-17.1,7.6-27.1,23.7c-9.9,16.1-10.2,29.4,2,29.4c13.5,0,27.7-14.5,33.1-22
			c1.9-2.7,4.5,3.5,3.1,5.8c-7.1,11.1-24.3,27.8-40.8,27.8c-16.5,0-28.7-17.9-9.5-44.9c14.8-20.7,32-26.1,40.2-26.1
			c14,0,9.6,20.4-2.7,27.5c-5.8,3.3-8.2-2.4-8.2-2.4C-219.3,299.8-213.3,287.6-218.9,287.6z"/>
		<path class="st1" d="M-157.4,313.1c-0.6,0.7-16.1,19.6-27.2,17.8c-0.7,1.3-1.5,2.6-2.4,4c-7.8,11.7-16.3,17.4-24.3,17.4
			c-9.8,0-14.9-11.1-5.4-27.1s19.4-20.7,25.9-20.7c1.3,0,1.7,1.5,1.9,3.2c1.7-1.8,3.6-2.9,5.5-2.9c4,0,4.9,6,4.1,11
			c-0.3,2-0.7,4.5-1.7,7.3c6.7,1.2,18.6-11.2,20.2-13.3C-159,307.4-156.7,312.3-157.4,313.1z M-191.6,325.8
			c-2.4-3.7-2.3-8.3-0.9-12.1c-3.7,2.2-8.4,7.1-11.9,13c-4.6,7.8-5.4,14.1-1.7,14.1C-201.2,340.9-195.4,332.8-191.6,325.8z"/>
		<path class="st1" d="M-134.1,313.1c-2,2.1-25.8,26-31.5,31.5c-6.3,5.9-10.2,7.6-13.2,7.6c-4.8,0-6.9-3.5-2.8-10.9
			c3-5.4,32-60.1,32-60.1h11.4c0,0-22.6,42.3-25.7,48.2c-1.1,1.9-3,5.9-2.4,6.5c0.6,0.6,2.3-0.9,4.2-2.5c2.7-2.3,24.6-23,27.2-25.9
			C-133.5,306.1-133.4,312.3-134.1,313.1z"/>
		<path class="st1" d="M-92.1,313.1c-0.6,0.7-16.1,19.6-27.2,17.8c-0.7,1.3-1.5,2.6-2.4,4c-7.8,11.7-16.3,17.4-24.3,17.4
			c-9.8,0-14.9-11.1-5.4-27.1s19.4-20.7,25.9-20.7c1.3,0,1.7,1.5,1.9,3.2c1.7-1.8,3.6-2.9,5.5-2.9c4,0,4.9,6,4.1,11
			c-0.3,2-0.7,4.5-1.7,7.3c6.7,1.2,18.6-11.2,20.2-13.3C-93.7,307.4-91.4,312.3-92.1,313.1z M-126.3,325.8
			c-2.4-3.7-2.3-8.3-0.9-12.1c-3.7,2.2-8.4,7.1-11.9,13c-4.6,7.8-5.4,14.1-1.7,14.1C-135.9,340.9-130.1,332.8-126.3,325.8z"/>
		<path class="st1" d="M-57.3,313.1c-2,2.1-25.7,26-31.5,31.5c-6.2,5.9-10.2,7.6-13.2,7.6c-4.8,0-6.8-3.5-2.8-10.9
			c3-5.4,6.9-13.2,10.4-19.2c3.7-6.1-0.7-6.6-2.4-7.5c-3.9-2-9.5-8.4-4.2-15c4.2-5.2,10.4-4.2,14-1.9c3.8,2.4,0.4,7.3-4,12
			c0.4,0.5,0.9,0.9,1.6,1.3c5.5,3.2,12.7-0.5,7.8,8.7c-1.8,3.5-2.3,3.8-5.4,9.6c-1.1,1.9-3,5.9-2.4,6.5c0.6,0.6,2.3-0.9,4.1-2.5
			c2.8-2.3,24.6-23,27.2-25.9C-56.6,306.1-56.6,312.3-57.3,313.1z"/>
	</g>
	<g class="st0">
		<path class="st2" d="M-107.2,275.1c-2.7,4-8.6,8.5-12.5,10.3c-2,5.3-5.1,6.2-8.2,6.2c-1.9,0-4.5-0.6-4-3.2
			c0.4-2.1,3.9-2.8,7.7-3.8c0.3-0.9,0.5-2,0.8-3.4c0.8-4.7,1.1-10.6,6.4-10.9c5.3-0.4-0.3,4.3-0.3,4.3s-0.8,3.8-1.2,6
			c-0.1,0.8-0.3,1.5-0.5,2.1c3.1-1.4,7-4.1,11.4-9.8C-106.7,272.5-106.9,274.8-107.2,275.1z M-126.5,289c0.4-0.5,0.8-0.9,1.1-1.5
			c-1.7,0.5-3.1,1-3.2,1.6C-128.7,290.3-127.2,290-126.5,289z"/>
		<path class="st2" d="M-90.6,275.3c-4.4,7.2-12,16.4-19.4,16.4c-7.3,0-8.8-5.7-4.7-12.2c3.4-5.3,7.5-7.7,10.1-7.7
			c4.3,0,7,4.1,2.8,9.5c-2.6,3.2-5.5,4.6-8.2,3.8c-0.7-0.2-1.2-0.5-1.6-0.9c-0.5,2.4,0.5,3.9,3.1,3.9c5.2,0,11.6-7,17.4-15.1
			C-90.7,272.4-90.4,274.9-90.6,275.3z M-110.3,281.1c-0.1,0.1-0.2,0.3-0.2,0.4c1.5,1.1,3.2,0,4.6-1.2c1.9-1.6,3.5-5.1,2-5.1
			C-105.5,275.2-108.4,277.8-110.3,281.1z"/>
		<path class="st2" d="M-71,275.4c-0.8,0.9-10.7,10.8-13.1,13.1c-2.6,2.5-4.2,3.2-5.5,3.2c-1.7,0-2.6-1-1.8-3.2
			c-1.8,1.8-3.9,3.2-6,3.2c-4.1,0-5.3-4.8-1-11.3c4.3-6.5,8.1-8.6,10.7-8.6c1.7,0,3,1.6,3.3,3.4c1-1.9,1.8-3.3,1.8-3.3l4.8,0
			c0,0-4.3,8-5.6,10.4c-0.5,0.8-1.3,2.5-1,2.7c0.3,0.3,1-0.4,1.7-1c1.2-1,10.2-9.6,11.3-10.8C-70.7,272.5-70.7,275.1-71,275.4z
			 M-87.8,281.1c2-3.2,2.3-5.9,0.7-5.9c-1.6,0-4.4,2.6-6.3,5.9c-1.9,3.2-2.2,5.9-0.7,5.9C-92.5,287-89.7,284.4-87.8,281.1z"/>
		<path class="st2" d="M-56.8,275.4c-0.8,0.9-10.7,10.8-13.1,13.1c-2.6,2.5-4.3,3.2-5.5,3.2c-2,0-2.8-1.4-1.2-4.6
			c1.2-2.3,2.9-5.5,4.3-8c1.5-2.6-0.3-2.8-1-3.1c-1.6-0.8-4-3.5-1.8-6.2c1.7-2.2,4.4-1.7,5.8-0.8c1.6,1,0.2,3-1.6,5
			c0.2,0.2,0.4,0.4,0.7,0.5c2.3,1.3,5.3-0.2,3.3,3.6c-0.8,1.4-1,1.6-2.3,4c-0.5,0.8-1.2,2.5-1,2.7c0.2,0.3,1-0.4,1.7-1
			c1.2-1,10.2-9.6,11.3-10.8C-56.6,272.5-56.5,275.1-56.8,275.4z"/>
		<path class="st2" d="M-40.1,275.3c-4.4,7.2-12,16.4-19.3,16.4c-6.8,0-8.9-5.7-4.8-12.2c3.4-5.3,7.5-7.7,10.1-7.7
			c4.3,0,6.9,4,2.7,9.5c-1.5,2-4.1-1-4.1-1c1.9-1.6,3.6-5.1,2-5.1c-1.6,0-4.4,2.6-6.3,5.9c-2.5,4.1-1.8,7,1.8,7
			c5.2,0,11.6-7,17.4-15.1C-40.2,272.4-39.9,274.9-40.1,275.3z"/>
		<path class="st2" d="M-18.5,275.4c-0.8,0.9-10.7,10.8-13.1,13.1c-2.6,2.5-4.3,3.2-5.5,3.2c-2,0-2.9-1.4-1.2-4.6
			c1.2-2.3,2.1-4,3.5-6.5c1.3-2.3,1.6-3.6,0.6-3.6c-1.7,0-9.7,7.5-13.6,14.7h-4.7l15.9-29.6h4.7L-42,281c6-7.9,10.3-9.1,11.8-9.1
			c2.3,0,4.1,1.5,2.1,5.3c-0.8,1.4-1.4,2.6-2.7,5.1c-0.5,0.8-1.2,2.5-1,2.7c0.2,0.3,1-0.4,1.7-1c1.2-1,10.2-9.6,11.3-10.8
			C-18.2,272.5-18.2,275.1-18.5,275.4z"/>
	</g>
</g>
</svg>
